<svg xmlns="http://www.w3.org/2000/svg" viewBox="0 0 640 360" role="img" aria-labelledby="title">
  <title id="title">Game server infrastructure</title>
  <defs><linearGradient id="bg" x1="0" y1="0" x2="1" y2="1"><stop stop-color="#0b1628"/><stop offset="1" stop-color="#183c58"/></linearGradient><linearGradient id="line" x1="0" y1="0" x2="1" y2="1"><stop stop-color="#6bdcff"/><stop offset="1" stop-color="#6a8cff"/></linearGradient></defs>
  <rect width="640" height="360" fill="url(#bg)"/>
  <g stroke="url(#line)" stroke-width="4" opacity=".55"><path d="M120 100 250 170 385 84 520 178 420 284 248 272 120 100Z"/><path d="m250 170-2 102m137-188 35 200m-170-114 170 114m-35-200L120 100m400 78-270-8"/></g>
  <g fill="#0c1728" stroke="#7fe0ff" stroke-width="5"><circle cx="120" cy="100" r="30"/><circle cx="250" cy="170" r="42"/><circle cx="385" cy="84" r="31"/><circle cx="520" cy="178" r="39"/><circle cx="420" cy="284" r="35"/><circle cx="248" cy="272" r="30"/></g>
  <g fill="#7fe0ff"><circle cx="120" cy="100" r="8"/><circle cx="250" cy="170" r="11"/><circle cx="385" cy="84" r="8"/><circle cx="520" cy="178" r="10"/><circle cx="420" cy="284" r="9"/><circle cx="248" cy="272" r="8"/></g>
</svg>
